<svg width="208" height="208" viewBox="0 0 208 208" fill="none" xmlns="http://www.w3.org/2000/svg">
<path d="M77.8782 139.527C77.8782 143.018 78.5659 146.476 79.9021 149.702C81.2384 152.928 83.1969 155.859 85.6659 158.328C88.135 160.797 91.0661 162.755 94.292 164.092C97.518 165.428 100.976 166.116 104.467 166.116C107.959 166.116 111.416 165.428 114.642 164.092C117.868 162.755 120.8 160.797 123.269 158.328C125.738 155.859 127.696 152.928 129.032 149.702C130.369 146.476 131.056 143.018 131.056 139.527C131.056 132.475 128.255 125.712 123.269 120.725C118.282 115.739 111.519 112.938 104.467 112.938C97.4154 112.938 90.6523 115.739 85.6659 120.725C80.6795 125.712 77.8782 132.475 77.8782 139.527Z" fill="#F1A013"/>
<path d="M119.255 132.641H89.2126V57.0171C88.7454 48.5875 95.5704 41.7625 104 41.7625C112.43 41.7625 119.255 48.5875 119.255 57.0171V132.641Z" fill="#F1A013"/>
<path d="M104 30.1031C116.147 30.1031 125.998 39.9547 125.998 52.1016V108.103C135.891 115.05 142.35 126.506 142.35 139.506C142.35 160.692 125.166 177.877 103.98 177.877C82.7938 177.877 65.6094 160.692 65.6094 139.506C65.6094 126.506 72.0891 115.05 81.961 108.103V52.1219C82.0016 39.9547 91.8532 30.1031 104 30.1031ZM104 22.75C87.811 22.75 74.6282 35.9328 74.6282 52.1219V104.508C64.3094 113.161 58.2766 125.978 58.2766 139.527C58.2766 164.734 78.7922 185.25 104 185.25C129.208 185.25 149.723 164.734 149.723 139.527C149.723 125.978 143.67 113.161 133.372 104.508V52.1219C133.372 35.9328 120.189 22.75 104 22.75Z" fill="#3D3939"/>
<path d="M103.249 67.3766H87.6282C86.6126 67.3766 85.7798 66.5438 85.7798 65.5281C85.7798 64.5125 86.6126 63.6797 87.6282 63.6797H103.249C104.264 63.6797 105.097 64.5125 105.097 65.5281C105.077 66.5438 104.264 67.3766 103.249 67.3766ZM103.249 81.1484H87.6282C86.6126 81.1484 85.7798 80.3156 85.7798 79.3C85.7798 78.2844 86.6126 77.4516 87.6282 77.4516H103.249C104.264 77.4516 105.097 78.2844 105.097 79.3C105.077 80.3359 104.264 81.1484 103.249 81.1484ZM103.249 94.9406H87.6282C86.6126 94.9406 85.7798 94.1078 85.7798 93.0922C85.7798 92.0766 86.6126 91.2438 87.6282 91.2438H103.249C104.264 91.2438 105.097 92.0766 105.097 93.0922C105.077 94.1078 104.264 94.9406 103.249 94.9406ZM103.249 108.713H87.6282C86.6126 108.713 85.7798 107.88 85.7798 106.864C85.7798 105.848 86.6126 105.016 87.6282 105.016H103.249C104.264 105.016 105.097 105.848 105.097 106.864C105.097 107.88 104.264 108.713 103.249 108.713Z" fill="white"/>
</svg>
