<svg width="262" height="262" viewBox="0 0 262 262" fill="none" xmlns="http://www.w3.org/2000/svg">
<path d="M163.75 141.917V54.5832C163.75 45.8974 160.3 37.5673 154.158 31.4255C148.016 25.2837 139.686 21.8333 131 21.8333C122.314 21.8333 113.984 25.2837 107.842 31.4255C101.701 37.5673 98.2501 45.8974 98.2501 54.5832V141.917C89.0852 148.79 82.3154 158.373 78.8996 169.308C75.4837 180.243 75.5951 191.976 79.2178 202.844C82.8405 213.712 89.791 223.165 99.0846 229.864C108.378 236.562 119.544 240.167 131 240.167C142.456 240.167 153.622 236.562 162.916 229.864C172.209 223.165 179.16 213.712 182.782 202.844C186.405 191.976 186.516 180.243 183.101 169.308C179.685 158.373 172.915 148.79 163.75 141.917Z" fill="#BBDEFB"/>
<path d="M131 240.167C119.544 240.167 108.378 236.562 99.0846 229.864C89.791 223.165 82.8405 213.712 79.2178 202.844C75.5951 191.976 75.4837 180.243 78.8996 169.308C82.3154 158.373 89.0852 148.79 98.2501 141.917V54.5832C98.2501 45.8974 101.701 37.5673 107.842 31.4255C113.984 25.2837 122.314 21.8333 131 21.8333C139.686 21.8333 148.016 25.2837 154.158 31.4255C160.3 37.5673 163.75 45.8974 163.75 54.5832V141.917C172.915 148.79 179.685 158.373 183.101 169.308C186.516 180.243 186.405 191.976 182.782 202.844C179.16 213.712 172.209 223.165 162.916 229.864C153.622 236.562 142.456 240.167 131 240.167ZM131 43.6666C128.105 43.6666 125.328 44.8167 123.281 46.864C121.234 48.9113 120.083 51.688 120.083 54.5832V147.812C120.091 149.735 119.59 151.627 118.632 153.295C117.673 154.962 116.291 156.347 114.625 157.309C109.659 160.176 105.533 164.296 102.66 169.258C99.7861 174.22 98.2655 179.849 98.2501 185.583C98.2501 194.269 101.701 202.599 107.842 208.741C113.984 214.883 122.314 218.333 131 218.333C139.686 218.333 148.016 214.883 154.158 208.741C160.3 202.599 163.75 194.269 163.75 185.583C163.735 179.849 162.214 174.22 159.34 169.258C156.467 164.296 152.341 160.176 147.375 157.309C145.709 156.347 144.327 154.962 143.368 153.295C142.41 151.627 141.909 149.735 141.917 147.812V54.5832C141.917 51.688 140.767 48.9113 138.719 46.864C136.672 44.8167 133.895 43.6666 131 43.6666Z" fill="#486675"/>
<path d="M109.167 185.583C109.167 191.374 111.467 196.927 115.562 201.022C119.656 205.116 125.21 207.417 131 207.417C136.791 207.417 142.344 205.116 146.439 201.022C150.533 196.927 152.833 191.374 152.833 185.583C152.833 182.716 152.269 179.877 151.171 177.228C150.074 174.579 148.466 172.172 146.439 170.145C144.411 168.117 142.004 166.509 139.355 165.412C136.706 164.315 133.867 163.75 131 163.75C128.133 163.75 125.294 164.315 122.645 165.412C119.996 166.509 117.589 168.117 115.562 170.145C113.534 172.172 111.926 174.579 110.829 177.228C109.731 179.877 109.167 182.716 109.167 185.583Z" fill="#FE6017"/>
</svg>
