<svg width="240" height="240" viewBox="0 0 240 240" fill="none" xmlns="http://www.w3.org/2000/svg">
<path d="M103.19 91.4497V146.858L83.7014 161.108L75.7554 182.074L85.5986 214.361L105.359 228.38L129.041 230.927L151.135 218.413C151.135 218.413 162.894 199.144 163.237 197.735C163.58 196.326 162.416 172.295 161.901 170.978C161.385 169.66 156.015 156.224 156.015 156.224L138.95 144.235L138.98 92.91" fill="#5FCEFF"/>
<path d="M101.456 72.7178H138.979V88.4143H101.456V72.7178Z" fill="#FFB578"/>
<path d="M103.19 54.7351H136.907V70.4317H103.19V54.7351Z" fill="#FF4893"/>
<path d="M120.213 236.168C92.805 236.168 70.5066 213.87 70.5066 186.461C70.5066 168.362 80.4892 151.636 96.2067 142.945V27.6077C96.2067 14.3666 106.976 3.59351 120.213 3.59351C133.451 3.59351 144.22 14.3658 144.22 27.6077V142.944C159.937 151.633 169.92 168.36 169.92 186.461C169.92 213.87 147.622 236.168 120.213 236.168ZM120.213 14.0833C112.76 14.0833 106.697 20.1502 106.697 27.6077V146.158C106.696 147.156 106.411 148.134 105.875 148.976C105.338 149.818 104.573 150.49 103.668 150.912C89.8956 157.332 80.9964 171.286 80.9964 186.461C80.9964 208.085 98.5894 225.678 120.213 225.678C141.837 225.678 159.43 208.086 159.43 186.461C159.43 171.283 150.532 157.328 136.76 150.912C135.855 150.491 135.089 149.819 134.552 148.977C134.015 148.135 133.73 147.157 133.73 146.158V27.6077C133.73 20.1502 127.666 14.0833 120.213 14.0833Z" fill="#4F46A3"/>
<path d="M120.213 218.852C102.824 218.852 88.6765 204.702 88.6765 187.308C88.6765 175.108 95.8291 163.886 106.899 158.721C108.16 158.133 109.602 158.069 110.91 158.545C112.217 159.02 113.282 159.996 113.87 161.256C114.458 162.517 114.522 163.96 114.046 165.267C113.571 166.575 112.595 167.639 111.335 168.228C103.942 171.677 99.1663 179.166 99.1663 187.309C99.1663 198.918 108.608 208.363 120.213 208.363C131.819 208.363 141.261 198.919 141.261 187.309C141.261 185.918 141.813 184.584 142.797 183.6C143.78 182.616 145.114 182.064 146.505 182.064C147.897 182.064 149.231 182.616 150.214 183.6C151.198 184.584 151.75 185.918 151.75 187.309C151.75 204.702 137.603 218.852 120.213 218.852ZM120.213 41.9937H101.452C100.061 41.9937 98.7265 41.4412 97.7429 40.4575C96.7593 39.4739 96.2067 38.1399 96.2067 36.7488C96.2067 35.3578 96.7593 34.0237 97.7429 33.0401C98.7265 32.0565 100.061 31.5039 101.452 31.5039H120.213C121.605 31.5039 122.939 32.0565 123.922 33.0401C124.906 34.0237 125.458 35.3578 125.458 36.7488C125.458 38.1399 124.906 39.4739 123.922 40.4575C122.939 41.4412 121.605 41.9937 120.213 41.9937ZM138.945 59.9763H101.452C100.061 59.9763 98.7265 59.4237 97.7429 58.4401C96.7593 57.4565 96.2067 56.1224 96.2067 54.7314C96.2067 53.3404 96.7593 52.0063 97.7429 51.0227C98.7265 50.0391 100.061 49.4865 101.452 49.4865H138.945C140.336 49.4865 141.67 50.0391 142.654 51.0227C143.638 52.0063 144.19 53.3404 144.19 54.7314C144.19 56.1224 143.638 57.4565 142.654 58.4401C141.67 59.4237 140.336 59.9763 138.945 59.9763ZM138.945 77.9589H101.452C100.061 77.9589 98.7265 77.4063 97.7429 76.4227C96.7593 75.4391 96.2067 74.105 96.2067 72.714C96.2067 71.3229 96.7593 69.9889 97.7429 69.0053C98.7265 68.0217 100.061 67.4691 101.452 67.4691H138.945C140.336 67.4691 141.67 68.0217 142.654 69.0053C143.638 69.9889 144.19 71.3229 144.19 72.714C144.19 74.105 143.638 75.4391 142.654 76.4227C141.67 77.4063 140.336 77.9589 138.945 77.9589ZM138.945 95.9415H101.452C100.061 95.9415 98.7265 95.3889 97.7429 94.4053C96.7593 93.4217 96.2067 92.0876 96.2067 90.6966C96.2067 89.3055 96.7593 87.9715 97.7429 86.9878C98.7265 86.0042 100.061 85.4516 101.452 85.4516H138.945C140.336 85.4516 141.67 86.0042 142.654 86.9878C143.638 87.9715 144.19 89.3055 144.19 90.6966C144.19 92.0876 143.638 93.4217 142.654 94.4053C141.67 95.3889 140.336 95.9415 138.945 95.9415Z" fill="#4F46A3"/>
</svg>
