<svg class="w-32 h-32 text-ocean" viewBox="0 0 200 200" fill="currentColor">
                    <!-- Water waves background -->
                    <path d="M0,120 Q50,100 100,120 T200,120 L200,200 L0,200 Z" fill="currentColor" opacity="0.3"/>
                    <path d="M0,140 Q50,120 100,140 T200,140 L200,200 L0,200 Z" fill="currentColor" opacity="0.5"/>
                    
                    <!-- Main circle (aquarium) -->
                    <circle cx="100" cy="100" r="70" fill="none" stroke="currentColor" stroke-width="4"/>
                    
                    <!-- Fish -->
                    <path d="M70,90 Q80,85 90,90 Q95,95 90,100 Q80,105 70,100 Q65,95 70,90 Z" fill="currentColor"/>
                    <circle cx="75" cy="92" r="2" fill="white"/>
                    <path d="M65,95 L55,90 L55,100 Z" fill="currentColor"/>
                    
                    <!-- Plants -->
                    <path d="M40,130 Q45,120 50,130 Q55,120 60,130" stroke="currentColor" stroke-width="2" fill="none"/>
                    <path d="M140,130 Q145,120 150,130 Q155,120 160,130" stroke="currentColor" stroke-width="2" fill="none"/>
                    
                    <!-- Bubbles -->
                    <circle cx="120" cy="110" r="3" fill="currentColor" opacity="0.6"/>
                    <circle cx="125" cy="95" r="2" fill="currentColor" opacity="0.4"/>
                    <circle cx="130" cy="80" r="1.5" fill="currentColor" opacity="0.3"/>
                </svg>